<svg width="35" height="35" viewBox="0 0 35 35" fill="none" xmlns="http://www.w3.org/2000/svg">
<path d="M13.6602 10.4062H17.5176C20.0892 10.4062 21.7461 11.168 22.4883 12.6914C22.7552 13.2513 22.8887 13.8828 22.8887 14.5859C22.8887 15.2826 22.7943 15.8717 22.6055 16.3535C22.4232 16.8353 22.166 17.2487 21.834 17.5938C21.196 18.2578 20.3171 18.694 19.1973 18.9023C19.6595 20.3281 20.444 21.3112 21.5508 21.8516C21.9154 22.0339 22.2214 22.1315 22.4688 22.1445C22.8854 22.1576 23.1784 22.1445 23.3477 22.1055V24H22.9082C21.4434 24 20.1966 23.4792 19.168 22.4375C18.263 21.5326 17.6543 20.3932 17.3418 19.0195H15.6133V24H13.6602V10.4062ZM17.3906 17.457C18.569 17.457 19.4414 17.2292 20.0078 16.7734C20.5742 16.3177 20.8574 15.6081 20.8574 14.6445C20.8574 13.362 20.2617 12.5352 19.0703 12.1641C18.6536 12.0339 18.1491 11.9688 17.5566 11.9688H15.6133V17.457H17.3906Z" fill="#F2F2F2"/>
<path d="M2.84456 9.03868L17.5 0.57735L32.1554 9.03868V25.9613L17.5 34.4226L2.84456 25.9613V9.03868Z" stroke="#F2F2F2"/>
</svg>
